HIERARCHY
ROOT Root
{
	OFFSET 0.00 0.00 0.00
	CHANNELS 6 Xposition Yposition Zposition Xrotation Yrotation Zrotation
	JOINT L_Femur
	{
		OFFSET 2.78527 0.00000 0.00000
		CHANNELS 3 Xrotation Yrotation Zrotation
		JOINT L_Tibia
		{
			OFFSET 0.00000 -16.41095 0.00000
			CHANNELS 3 Xrotation Yrotation Zrotation
			JOINT L_Foot
			{
				OFFSET 0.00000 -14.21163 0.00000
				CHANNELS 3 Xrotation Yrotation Zrotation
				JOINT L_Toe
				{
					OFFSET 0.00000 -1.60827 6.00215
					CHANNELS 3 Xrotation Yrotation Zrotation
					End Site
					{
						OFFSET 0.00000 0.00000 2.95275
					}
				}
			}
		}
	}
	JOINT R_Femur
	{
		OFFSET -2.78527 0.00000 0.00000
		CHANNELS 3 Xrotation Yrotation Zrotation
		JOINT R_Tibia
		{
			OFFSET 0.00000 -16.41095 0.00000
			CHANNELS 3 Xrotation Yrotation Zrotation
			JOINT R_Foot
			{
				OFFSET 0.00000 -14.21163 0.00000
				CHANNELS 3 Xrotation Yrotation Zrotation
				JOINT R_Toe
				{
					OFFSET 0.00000 -1.60827 6.00215
					CHANNELS 3 Xrotation Yrotation Zrotation
					End Site
					{
						OFFSET 0.00000 0.00000 2.95275
					}
				}
			}
		}
	}
	JOINT LowerBack
	{
		OFFSET 0.00000 0.03937 0.00000
		CHANNELS 3 Xrotation Yrotation Zrotation
		JOINT Thorax
		{
			OFFSET 0.00000 7.01329 0.00000
			CHANNELS 3 Xrotation Yrotation Zrotation
			JOINT Neck
			{
				OFFSET 0.00000 7.25825 0.00000
				CHANNELS 3 Xrotation Yrotation Zrotation
				JOINT Head
				{
					OFFSET 0.00000 5.63334 0.00000
					CHANNELS 3 Xrotation Yrotation Zrotation
					End Site
					{
						OFFSET 0.00000 4.52755 0.00000
					}
				}
			}
			JOINT L_Collar
			{
				OFFSET 0.00000 7.25825 0.00000
				CHANNELS 3 Xrotation Yrotation Zrotation
				JOINT L_Humerus
				{
					OFFSET 6.91821 -0.00003 0.00000
					CHANNELS 3 Xrotation Yrotation Zrotation
					JOINT L_Elbow
					{
						OFFSET 10.34006 -0.00004 0.00000
						CHANNELS 3 Xrotation Yrotation Zrotation
						JOINT L_Wrist
						{
							OFFSET 7.25554 -0.00003 0.00000
							CHANNELS 3 Xrotation Yrotation Zrotation
							JOINT L_Thumb
							{
								OFFSET 0.00000 0.00000 0.00000
								CHANNELS 3 Xrotation Yrotation Zrotation
								End Site
								{
									OFFSET 0.00000 0.00000 3.93700
								}
							}
							JOINT L_Wrist_End
							{
								OFFSET 3.93700 -0.00001 0.00000
								CHANNELS 3 Xrotation Yrotation Zrotation
							}
						}
					}
				}
			}
			JOINT R_Collar
			{
				OFFSET 0.00000 7.25825 0.00000
				CHANNELS 3 Xrotation Yrotation Zrotation
				JOINT R_Humerus
				{
					OFFSET -6.91821 -0.00003 0.00000
					CHANNELS 3 Xrotation Yrotation Zrotation
					JOINT R_Elbow
					{
						OFFSET -10.34006 -0.00004 0.00000
						CHANNELS 3 Xrotation Yrotation Zrotation
						JOINT R_Wrist
						{
							OFFSET -7.25554 -0.00003 0.00000
							CHANNELS 3 Xrotation Yrotation Zrotation
							JOINT R_Thumb
							{
								OFFSET 0.00000 0.00000 0.00000
								CHANNELS 3 Xrotation Yrotation Zrotation
								End Site
								{
									OFFSET 0.00000 0.00000 3.93700
								}
							}
							JOINT R_Wrist_End
							{
								OFFSET -5.39369 -0.00002 0.00000
								CHANNELS 3 Xrotation Yrotation Zrotation
							}
						}
					}
				}
			}
		}
	}
}
MOTION
Frames: 13
Frame Time: 0.066664
 -25.1537 32.8840 -0.9376 6.7466 -3.5797 -0.8444 -7.0397 32.9087 10.2015 2.2161 0.0000 0.0000 -4.7737 -10.4719 -2.5333 -7.3641 0.0000 0.0000 -4.2364 1.7918 -4.2542 4.1813 -0.0000 -0.0000 -8.3467 0.2003 5.8700 -10.1285 0.0000 -0.0000 -5.3159 -1.4554 -9.5573 2.2890 -1.3546 12.4399 0.4131 -28.0441 5.3064 -8.1886 47.3659 11.2747 -4.1549 30.5306 22.0940 -20.2733 -10.1150 -24.1636 -0.0000 -8.5998 -0.0000 -8.5830 2.6221 0.5160 -0.0000 0.0000 -0.0000 -0.0000 0.0000 -0.0000 0.0951 -10.9778 -22.6914 -48.0522 -5.6434 33.8660 -0.0000 13.0679 0.0000 6.7323 1.5393 -16.5302 -0.0000 -0.0000 0.0000 -0.0000 -0.0000 0.0000
 -25.1661 32.8797 -0.9351 6.7368 -3.3565 -0.8187 -7.0190 32.7988 10.1668 2.1678 0.0000 0.0000 -4.7384 -10.5777 -2.6324 -7.3646 0.0000 0.0000 -4.1787 1.7481 -4.2740 4.1733 -0.0000 0.0000 -8.4168 0.0254 5.9861 -10.0635 0.0000 -0.0000 -5.2944 -1.4462 -9.5446 2.2501 -1.3531 12.4317 0.4608 -28.1626 5.3776 -7.9135 47.5231 11.1034 -4.1220 30.5775 22.0225 -20.3882 -10.2018 -24.3287 -0.0000 -8.6336 -0.0000 -8.5561 2.6036 0.6467 -0.0000 -0.0000 0.0000 -0.0000 -0.0000 0.0000 0.1798 -10.8923 -22.6781 -47.9466 -5.6094 34.0244 -0.0000 13.3291 0.0000 6.7445 1.5086 -16.5598 -0.0000 0.0000 -0.0000 -0.0000 0.0000 -0.0000
 -25.1634 32.8783 -0.9381 6.7269 -3.2237 -0.8174 -7.0489 32.6434 10.1588 2.2440 -0.0000 -0.0000 -4.7660 -10.5529 -2.6280 -7.4210 0.0000 0.0000 -4.1239 1.6886 -4.2909 4.1088 -0.0000 0.0000 -8.3996 -0.0420 6.0041 -10.1107 0.0000 0.0000 -5.2846 -1.4152 -9.5427 2.2599 -1.3259 12.4409 0.5594 -28.2070 5.3794 -7.9781 47.6446 11.1625 -4.0623 30.6499 21.9643 -20.5853 -10.2530 -24.4677 -0.0000 -8.6470 -0.0000 -8.6338 2.5919 0.5980 -0.0000 -0.0000 0.0000 -0.0000 -0.0000 0.0000 0.2627 -10.8381 -22.6295 -47.9819 -5.5640 34.2222 -0.0001 13.6731 0.0000 6.9108 1.4005 -16.5553 -0.0000 0.0000 -0.0000 -0.0000 0.0000 -0.0000
 -25.1451 32.8772 -0.9399 6.7192 -3.1204 -0.8298 -7.0977 32.5957 10.1585 2.3412 -0.0000 -0.0000 -4.8430 -10.6210 -2.6778 -7.4110 -0.0000 -0.0000 -4.0995 1.6245 -4.3200 4.0928 -0.0000 0.0000 -8.3862 -0.0815 6.0335 -10.1023 0.0000 0.0000 -5.2877 -1.3916 -9.5483 2.2688 -1.3068 12.4484 0.6446 -28.2482 5.3501 -7.8795 47.7209 11.1650 -4.0659 30.6975 21.9305 -20.7639 -10.2738 -24.5279 -0.0000 -8.8039 -0.0000 -8.6896 2.5643 0.6289 -0.0000 0.0000 -0.0000 -0.0000 0.0000 -0.0000 0.3001 -10.7512 -22.5593 -48.6527 -5.6552 34.3723 -0.0001 13.7082 0.0000 8.1194 0.8849 -16.5173 -0.0000 0.0000 -0.0000 -0.0000 0.0000 -0.0000
 -25.1086 32.8759 -0.9427 6.7166 -2.9725 -0.8486 -7.0610 32.4784 10.0774 2.3142 0.0000 -0.0000 -4.8915 -10.6400 -2.7487 -7.3541 0.0000 0.0000 -4.1093 1.5970 -4.3687 4.1580 -0.0000 -0.0000 -8.4149 -0.2192 6.0101 -10.0715 0.0000 -0.0000 -5.3102 -1.3961 -9.5474 2.3190 -1.3202 12.4639 0.7368 -28.3915 5.3148 -7.6794 47.8357 11.0339 -3.9931 30.7385 21.8479 -20.9393 -10.3360 -24.6526 -0.0000 -8.9372 -0.0000 -8.7827 2.5659 0.5297 -0.0000 0.0000 -0.0000 -0.0000 0.0000 -0.0000 0.4144 -10.7642 -22.4941 -48.7902 -5.5358 34.4733 -0.0001 14.1465 0.0000 7.9970 1.0086 -16.5429 -0.0000 -0.0000 0.0000 -0.0000 -0.0000 0.0000
 -25.0621 32.8754 -0.9428 6.7025 -2.8892 -0.8589 -7.0558 32.4136 10.0057 2.4066 0.0000 -0.0000 -5.0091 -10.6613 -2.7689 -7.4166 0.0000 0.0000 -4.1085 1.6068 -4.4436 4.2141 -0.0000 0.0000 -8.4146 -0.3175 5.9960 -10.0623 0.0000 0.0000 -5.3324 -1.3876 -9.5607 2.3809 -1.3191 12.4613 0.8217 -28.5598 5.2975 -7.3983 47.9123 10.8177 -3.9609 30.7624 21.7811 -20.9800 -10.4513 -24.7719 -0.0000 -8.9847 -0.0000 -8.7966 2.5385 0.5859 -0.0000 -0.0000 0.0000 -0.0000 -0.0000 0.0000 0.3626 -10.7566 -22.4776 -48.6955 -5.3589 34.5798 -0.0001 14.4540 0.0000 8.0398 1.0154 -16.5274 -0.0000 0.0000 -0.0000 -0.0000 0.0000 -0.0000
 -25.0060 32.8740 -0.9442 6.6904 -2.9085 -0.8606 -7.0049 32.3046 9.8978 2.4959 0.0000 0.0000 -5.1537 -10.5176 -2.8039 -7.3785 0.0000 0.0000 -4.1196 1.6595 -4.5404 4.2564 -0.0000 0.0000 -8.3965 -0.3581 6.0344 -10.0672 0.0000 0.0000 -5.3511 -1.3694 -9.5704 2.4700 -1.3069 12.4519 0.9330 -28.7089 5.2789 -7.4250 48.0277 10.7184 -3.8575 30.8137 21.6545 -20.9985 -10.5151 -24.8976 -0.0000 -8.9659 -0.0000 -8.8791 2.5030 0.5718 -0.0000 -0.0000 0.0000 -0.0000 -0.0000 0.0000 0.4429 -10.7575 -22.4623 -48.3600 -5.0853 34.6092 -0.0001 14.7115 0.0000 7.9045 1.0381 -16.4765 -0.0000 -0.0000 0.0000 -0.0000 -0.0000 0.0000
 -24.9439 32.8732 -0.9429 6.6887 -3.0458 -0.8387 -6.8941 32.2799 9.7404 2.5118 0.0000 0.0000 -5.2582 -10.3383 -2.8544 -7.3041 0.0000 0.0000 -4.1722 1.6078 -4.6665 4.3038 -0.0000 0.0000 -8.3695 -0.1833 6.0495 -10.0878 0.0000 0.0000 -5.3911 -1.3378 -9.5866 2.5971 -1.2862 12.4336 1.0580 -28.9245 5.2569 -7.6360 48.2334 10.6632 -3.7954 30.9000 21.5191 -21.0204 -10.5482 -25.1100 -0.0000 -8.9371 -0.0000 -8.8641 2.5851 0.4640 -0.0000 0.0000 -0.0000 -0.0000 0.0000 -0.0000 0.5311 -10.7864 -22.4063 -48.2746 -4.9804 34.7295 -0.0001 14.9427 0.0000 7.6696 1.1300 -16.4451 -0.0000 0.0000 -0.0000 -0.0000 0.0000 -0.0000
 -24.8871 32.8725 -0.9385 6.6969 -3.2583 -0.8066 -6.7702 32.2861 9.5864 2.5106 0.0000 0.0000 -5.3470 -10.1279 -2.8965 -7.3045 0.0000 -0.0000 -4.2302 1.7535 -4.7883 4.3564 -0.0000 0.0000 -8.3482 -0.1119 6.0938 -10.1022 0.0000 0.0000 -5.4313 -1.3162 -9.6021 2.6719 -1.2778 12.4035 1.1110 -29.1856 5.1988 -7.6912 48.4529 10.4542 -3.6944 30.9627 21.3518 -20.8916 -10.6285 -25.2483 -0.0000 -9.0053 -0.0000 -8.9535 2.6023 0.5594 -0.0000 -0.0000 0.0000 -0.0000 -0.0000 0.0000 0.5299 -10.7693 -22.3772 -47.8636 -4.7665 34.9582 -0.0001 15.0991 0.0000 7.6712 1.1817 -16.3571 -0.0000 -0.0000 0.0000 -0.0000 -0.0000 0.0000
 -24.8276 32.8709 -0.9328 6.7029 -3.5166 -0.7509 -6.5830 32.3697 9.3818 2.4329 -0.0000 0.0000 -5.4133 -9.9369 -2.9117 -7.2904 0.0000 0.0000 -4.3342 1.8425 -4.9364 4.4970 -0.0000 0.0000 -8.3851 0.0589 6.1507 -10.0925 0.0000 -0.0000 -5.4560 -1.2838 -9.6227 2.7712 -1.2547 12.3917 1.1622 -29.5148 5.2317 -7.8900 48.7784 10.1440 -3.7255 30.9959 21.2529 -20.8565 -10.7317 -25.4100 -0.0000 -9.0084 -0.0000 -9.0943 2.5908 0.4984 -0.0000 0.0000 -0.0000 -0.0000 0.0000 -0.0000 0.5427 -10.8238 -22.3176 -47.8518 -4.7331 35.1549 -0.0001 15.2752 0.0000 7.7763 1.1115 -16.2976 -0.0000 0.0000 -0.0000 -0.0000 0.0000 -0.0000
 -24.7771 32.8695 -0.9273 6.7232 -3.7757 -0.6860 -6.3969 32.4386 9.1774 2.3123 0.0000 0.0000 -5.4065 -9.7420 -2.9413 -7.3796 0.0000 -0.0000 -4.4960 1.9630 -5.0742 4.7286 -0.0000 -0.0000 -8.4539 0.1981 6.1660 -10.0675 0.0000 0.0000 -5.4837 -1.2814 -9.6435 2.8387 -1.2638 12.3593 1.2559 -29.8103 5.2604 -8.2464 49.0940 9.9983 -3.6796 30.9931 21.1686 -20.7561 -10.8552 -25.4127 -0.0000 -9.0374 -0.0000 -9.2607 2.5561 0.5518 -0.0000 0.0000 -0.0000 -0.0000 0.0000 -0.0000 0.5908 -10.8196 -22.2768 -47.7565 -4.6948 35.3230 -0.0001 15.4066 0.0000 7.7347 1.1615 -16.2503 -0.0000 -0.0000 0.0000 -0.0000 -0.0000 0.0000
 -24.7382 32.8676 -0.9204 6.7514 -4.0021 -0.6309 -6.2546 32.4958 9.0151 2.2343 0.0000 -0.0000 -5.4524 -9.5576 -2.9313 -7.2889 0.0000 0.0000 -4.6200 2.0532 -5.1836 4.8790 -0.0000 0.0000 -8.4948 0.3441 6.2478 -10.1010 0.0000 0.0000 -5.5122 -1.2978 -9.6654 2.8705 -1.2911 12.3399 1.4096 -30.0474 5.3232 -8.6375 49.3570 9.9137 -3.6303 30.9577 21.1136 -20.7957 -10.9754 -25.3796 -0.0000 -9.0616 -0.0000 -9.1009 2.5817 0.6169 -0.0000 -0.0000 0.0000 -0.0000 -0.0000 0.0000 0.6562 -10.8136 -22.2053 -47.6014 -4.4872 35.3987 -0.0001 15.4591 0.0000 7.7871 1.1564 -16.1982 -0.0000 -0.0000 0.0000 -0.0000 -0.0000 0.0000
 -24.7139 32.8677 -0.9105 6.7816 -4.1984 -0.5980 -6.1377 32.5429 8.9076 2.1411 -0.0000 0.0000 -5.4501 -9.4146 -2.9301 -7.2608 0.0000 0.0000 -4.6977 2.1094 -5.2437 4.9423 -0.0000 -0.0000 -8.5122 0.4760 6.2316 -10.0989 0.0000 -0.0000 -5.5395 -1.3292 -9.6752 2.8787 -1.3318 12.3370 1.4970 -30.1316 5.3843 -8.7141 49.5891 9.8547 -3.6117 30.9226 21.0635 -20.8596 -11.0902 -25.3476 -0.0000 -9.1767 -0.0000 -9.0496 2.5495 0.7270 -0.0000 -0.0000 0.0000 -0.0000 -0.0000 0.0000 0.7647 -10.8634 -22.0875 -47.6883 -4.4033 35.4829 -0.0001 15.7802 0.0000 7.6991 1.1563 -16.2039 -0.0000 0.0000 -0.0000 -0.0000 0.0000 -0.0000
